<svg width="24" height="24" viewBox="0 0 24 24" xmlns="http://www.w3.org/2000/svg">
    <g fill="none" fill-rule="evenodd">
        <path d="M12.308.767c6.034 0 10.925 4.865 10.925 10.867 0 3.125-1.333 5.934-3.456 7.916a7.904 7.904 0 0 0-7.469-5.293A7.905 7.905 0 0 0 4.84 19.55c-2.123-1.982-3.456-4.791-3.456-7.916C1.383 5.632 6.275.767 12.308.767zm.192 3.45a4.216 4.216 0 1 0 0 8.432 4.216 4.216 0 0 0 0-8.432z" fill="#FFF"/>
        <path d="M12.308 22.617c6.034 0 10.925-4.892 10.925-10.925 0-6.034-4.891-10.925-10.925-10.925-6.033 0-10.925 4.891-10.925 10.925 0 6.033 4.892 10.925 10.925 10.925z" stroke="#FFF"/>
    </g>
</svg>
