<svg width="17" height="21" viewBox="0 0 17 21" xmlns="http://www.w3.org/2000/svg" xmlns:xlink="http://www.w3.org/1999/xlink">
    <defs>
        <path id="opb3ut9eta" d="M0 0h14.469v13.514H0z"/>
        <path id="er8vqq7d0c" d="M0 0h7.734v4.368H0z"/>
    </defs>
    <g fill="none" fill-rule="evenodd">
        <g transform="translate(.842 6.758)">
            <mask id="rcesnwqavb" fill="#fff">
                <use xlink:href="#opb3ut9eta"/>
            </mask>
            <path d="M1 1v8.885c0 1.449 1.286 2.629 2.867 2.629h6.735c1.581 0 2.867-1.18 2.867-2.629V1H1zm9.602 12.514H3.867C1.734 13.514 0 11.886 0 9.885V0h14.469v9.885c0 2.001-1.735 3.629-3.867 3.629z" fill="#000" mask="url(#rcesnwqavb)"/>
        </g>
        <g transform="translate(4.209)">
            <mask id="h54lmzct3d" fill="#fff">
                <use xlink:href="#er8vqq7d0c"/>
            </mask>
            <path d="M1 3.368h5.734v-.763C6.734 1.72 6.015 1 5.13 1H2.604C1.72 1 1 1.72 1 2.605v.763zm6.602 1H.133l-.081-.401A2.628 2.628 0 0 1 0 3.447v-.842A2.608 2.608 0 0 1 2.604 0H5.13a2.608 2.608 0 0 1 2.604 2.605v.842c0 .178-.017.35-.051.52l-.081.4z" fill="#000" mask="url(#h54lmzct3d)"/>
        </g>
        <path d="M5.21 16.532a.5.5 0 0 1-.5-.5v-5.82a.5.5 0 1 1 1 0v5.82a.5.5 0 0 1-.5.5M8.076 16.532a.5.5 0 0 1-.5-.5v-5.82a.5.5 0 1 1 1 0v5.82a.5.5 0 0 1-.5.5M10.941 16.532a.5.5 0 0 1-.5-.5v-5.82a.5.5 0 1 1 1 0v5.82a.5.5 0 0 1-.5.5M1.001 6.69h14.15a2.45 2.45 0 0 0-2.445-2.367h-9.26A2.45 2.45 0 0 0 1.001 6.69m14.622 1H.529a.5.5 0 0 1-.495-.43 3.45 3.45 0 0 1 3.412-3.938h9.26a3.45 3.45 0 0 1 3.412 3.938.5.5 0 0 1-.495.43" fill="#000"/>
    </g>
</svg>
