<svg width="20" height="20" viewBox="0 0 20 20" xmlns="http://www.w3.org/2000/svg">
    <g fill="none" fill-rule="evenodd">
        <path d="M10 3.5c2.37 0 4.517.687 6.071 1.81C17.556 6.381 18.5 7.855 18.5 9.5c0 1.644-.944 3.118-2.429 4.19C14.517 14.814 12.37 15.5 10 15.5c-.57 0-1.127-.04-1.666-.116-1.438 1.103-2.808 1.504-4.032 1.609-1.139.097-2.161-.058-2.662-.289 1.236.095 1.864-.137 2.333-.472a2.517 2.517 0 0 0 1.004-1.467c-1.25-1.126-2.08-1.85-2.648-2.687C1.8 11.3 1.5 10.426 1.5 9.5c0-1.644.944-3.118 2.429-4.19C5.483 4.186 7.63 3.5 10 3.5z" stroke="#BEBEBE"/>
        <path d="M0 0h20v20H0z"/>
    </g>
</svg>
