<svg width="56" height="56" viewBox="0 0 56 56" fill="none" xmlns="http://www.w3.org/2000/svg">
<g filter="url(#filter0_d_134_1601)">
<circle cx="28" cy="24" r="24" fill="white"/>
</g>
<path d="M27.5245 11.4635C27.6741 11.0029 28.3259 11.0029 28.4755 11.4635L31.0309 19.3283C31.0979 19.5343 31.2899 19.6738 31.5065 19.6738H39.776C40.2603 19.6738 40.4617 20.2936 40.0698 20.5783L33.3797 25.439C33.2044 25.5663 33.1311 25.792 33.1981 25.998L35.7535 33.8627C35.9031 34.3234 35.3759 34.7064 34.984 34.4217L28.2939 29.5611C28.1186 29.4337 27.8814 29.4337 27.7061 29.5611L21.016 34.4217C20.6241 34.7064 20.0969 34.3234 20.2465 33.8627L22.8019 25.998C22.8689 25.792 22.7956 25.5663 22.6203 25.439L15.9302 20.5783C15.5383 20.2936 15.7397 19.6738 16.224 19.6738H24.4935C24.7101 19.6738 24.9021 19.5343 24.9691 19.3283L27.5245 11.4635Z" fill="#D9D8D8"/>
<defs>
<filter id="filter0_d_134_1601" x="0" y="0" width="56" height="56" filterUnits="userSpaceOnUse" color-interpolation-filters="sRGB">
<feFlood flood-opacity="0" result="BackgroundImageFix"/>
<feColorMatrix in="SourceAlpha" type="matrix" values="0 0 0 0 0 0 0 0 0 0 0 0 0 0 0 0 0 0 127 0" result="hardAlpha"/>
<feOffset dy="4"/>
<feGaussianBlur stdDeviation="2"/>
<feComposite in2="hardAlpha" operator="out"/>
<feColorMatrix type="matrix" values="0 0 0 0 0.692656 0 0 0 0 0.730534 0 0 0 0 0.775 0 0 0 0.33 0"/>
<feBlend mode="normal" in2="BackgroundImageFix" result="effect1_dropShadow_134_1601"/>
<feBlend mode="normal" in="SourceGraphic" in2="effect1_dropShadow_134_1601" result="shape"/>
</filter>
</defs>
</svg>
