<svg width="30" height="40" viewBox="0 0 30 40" xmlns="http://www.w3.org/2000/svg">
    <g fill="none" fill-rule="evenodd">
        <ellipse fill-opacity=".2" fill="#333" cx="15.2" cy="38" rx="4.8" ry="2"/>
        <path d="M29.296 15.509C29.296 7.496 22.962 1 15.148 1S1 7.496 1 15.509c0 3.116.958 6.002 2.588 8.366.928 1.4 2.663 3.689 5.869 7.144 0 0 2.485 2.566 4.408 5.291 0 0 .481.721 1.283.689.802.032 1.283-.689 1.283-.689 1.923-2.725 4.408-5.29 4.408-5.29 3.207-3.457 4.942-5.744 5.869-7.145a14.695 14.695 0 0 0 2.588-8.366" stroke="#000" fill-opacity=".854" fill="#000"/>
        <rect stroke="#000" fill="#F5F5F5" x="11.5" y="11.5" width="7" height="7" rx="2"/>
    </g>
</svg>
